<svg width="66" height="65" viewBox="0 0 66 65" fill="none" xmlns="http://www.w3.org/2000/svg">
<path d="M65.0176 37.8772C65.0176 47.8183 56.9587 55.8772 47.0176 55.8772L13 55.8772C10.2386 55.8772 7.99999 53.6387 7.99999 50.8772L7.99999 10C7.99999 4.47716 12.4771 -7.78534e-07 18 -2.95711e-07L60.0176 3.37758e-06C62.779 3.61899e-06 65.0176 2.23858 65.0176 5L65.0176 37.8772Z" fill="#E8F5E9"/>
<path d="M50.505 10.5193C50.7528 10.6726 50.9574 10.8866 51.0992 11.141C51.2411 11.3955 51.3157 11.682 51.3158 11.9733V63.2891C51.3158 63.7428 51.1356 64.1779 50.8148 64.4986C50.494 64.8194 50.059 64.9996 49.6053 64.9996H39.3421C38.8885 64.9996 38.4534 64.8194 38.1326 64.4986C37.8118 64.1779 37.6316 63.7428 37.6316 63.2891V58.1575H34.2106V63.2891C34.2106 63.7428 34.0303 64.1779 33.7096 64.4986C33.3888 64.8194 32.9537 64.9996 32.5 64.9996H1.71053C1.25687 64.9996 0.821788 64.8194 0.501002 64.4986C0.180216 64.1779 0 63.7428 0 63.2891V44.4733C0.000272476 44.1145 0.113401 43.7648 0.323375 43.4738C0.533349 43.1827 0.829531 42.9651 1.17 42.8517L20.5263 36.3996V25.6575C20.5263 25.3401 20.6147 25.029 20.7814 24.7589C20.9482 24.4888 21.1868 24.2705 21.4705 24.1283L48.839 10.4441C49.1 10.3134 49.3902 10.2517 49.6818 10.2649C49.9734 10.2781 50.2568 10.3657 50.505 10.5193ZM20.5263 40.0054L3.42106 45.7049V61.5786H20.5263V40.0054ZM23.9474 61.5786H30.7895V56.447C30.7895 55.9934 30.9697 55.5583 31.2905 55.2375C31.6113 54.9167 32.0464 54.7365 32.5 54.7365H39.3421C39.7958 54.7365 40.2309 54.9167 40.5517 55.2375C40.8724 55.5583 41.0527 55.9934 41.0527 56.447V61.5786H47.8948V14.7409L23.9474 26.7146V61.5786Z" fill="#181818"/>
<path d="M6.84216 47.8948H10.2632V51.3158H6.84216V47.8948ZM13.6843 47.8948H17.1053V51.3158H13.6843V47.8948ZM6.84216 54.7369H10.2632V58.1579H6.84216V54.7369ZM13.6843 54.7369H17.1053V58.1579H13.6843V54.7369ZM27.3685 41.0527H30.7895V44.4737H27.3685V41.0527ZM34.2106 41.0527H37.6317V44.4737H34.2106V41.0527ZM27.3685 47.8948H30.7895V51.3158H27.3685V47.8948ZM34.2106 47.8948H37.6317V51.3158H34.2106V47.8948ZM41.0527 41.0527H44.4738V44.4737H41.0527V41.0527ZM41.0527 47.8948H44.4738V51.3158H41.0527V47.8948ZM27.3685 34.2105H30.7895V37.6316H27.3685V34.2105ZM34.2106 34.2105H37.6317V37.6316H34.2106V34.2105ZM41.0527 34.2105H44.4738V37.6316H41.0527V34.2105ZM27.3685 27.3684H30.7895V30.7895H27.3685V27.3684ZM34.2106 27.3684H37.6317V30.7895H34.2106V27.3684ZM41.0527 27.3684H44.4738V30.7895H41.0527V27.3684ZM41.0527 20.5263H44.4738V23.9474H41.0527V20.5263Z" fill="#181818"/>
</svg>
