<svg width="71" height="70" viewBox="0 0 71 70" fill="none" xmlns="http://www.w3.org/2000/svg">
<path d="M40.5337 65.6854L40.0506 65.7537L39.9173 66.2231L39.3896 68.081C39.3896 68.081 39.3896 68.0811 39.3896 68.0811C39.1989 68.7519 38.5549 69.25 37.7737 69.25H32.5412C31.7609 69.25 31.1175 68.753 30.926 68.0833C30.9258 68.0825 30.9255 68.0818 30.9253 68.081L30.4142 66.2285L30.2844 65.7581L29.8017 65.6862C28.4912 65.491 27.546 64.4384 27.546 63.2016V61.1564C27.546 60.508 28.0972 59.9331 28.8618 59.9331H41.448C42.2193 59.945 42.7689 60.5249 42.7689 61.1708V63.216C42.7689 64.4433 41.8194 65.5034 40.5337 65.6854ZM47.6214 45.0383L47.6202 45.0394C45.1262 47.5121 43.5129 50.6665 42.9746 54.0367C42.8114 55.0297 41.8966 55.8117 40.7594 55.8117H29.5555C28.423 55.8117 27.5057 55.0356 27.3564 54.0576L27.3565 54.0576L27.3551 54.0492C26.8019 50.6827 25.1753 47.4846 22.6789 45.0244C19.7338 42.1004 17.9081 38.1377 17.865 33.7827L17.865 33.7819C17.7644 24.6373 25.3887 17.1814 35.0497 17.1121C44.693 17.0429 52.4649 24.4866 52.4649 33.6029C52.4649 38.0417 50.6246 42.0732 47.6214 45.0383ZM15.8688 50.3202L15.8739 50.3152C16.3669 49.8353 17.1997 49.8353 17.6927 50.3152L17.6926 50.3152L17.6978 50.3201C18.1877 50.7881 18.1877 51.5185 17.6978 51.9865L12.6462 56.8116C12.4061 57.0409 12.0693 57.1656 11.7317 57.1656C11.3941 57.1656 11.0573 57.0409 10.8172 56.8116C10.3273 56.3436 10.3273 55.6132 10.8172 55.1452L15.8688 50.3201L15.8688 50.3202ZM59.5128 10.3798L60.0308 9.83745L59.5128 10.3798C60.0027 10.8477 60.0027 11.5782 59.5128 12.0461L54.4612 16.8712C54.2211 17.1006 53.8843 17.2253 53.5467 17.2253C53.2019 17.2253 52.8745 17.1054 52.612 16.8664C52.1272 16.3982 52.1289 15.6712 52.6171 15.2049L57.6687 10.3798C58.178 9.89329 59.0034 9.89329 59.5128 10.3798ZM15.8688 16.8568L15.868 16.8561L10.8021 12.0317C10.802 12.0316 10.8019 12.0315 10.8017 12.0313C10.3122 11.5634 10.3124 10.8332 10.8021 10.3654C11.3115 9.87889 12.1369 9.87889 12.6462 10.3654L17.6978 15.1905C18.1877 15.6584 18.1877 16.3889 17.6978 16.8568C17.4577 17.0862 17.1209 17.2109 16.7833 17.2109C16.4457 17.2109 16.1089 17.0862 15.8688 16.8568ZM59.4969 55.1445L59.4977 55.1452C59.9876 55.6132 59.9876 56.3436 59.4977 56.8116C59.2576 57.0409 58.9208 57.1656 58.5832 57.1656C58.2456 57.1656 57.9088 57.0409 57.6687 56.8116L52.6171 51.9865C52.1272 51.5185 52.1272 50.7881 52.6171 50.3201C53.1264 49.8337 53.9517 49.8336 54.4611 50.32C54.4611 50.32 54.4611 50.3201 54.4612 50.3201L59.4969 55.1445ZM37.9507 23.1605C37.9507 21.6519 36.6811 20.4661 35.165 20.4661C27.6064 20.4661 21.3865 26.3433 21.3865 33.6605C21.3865 35.1691 22.6561 36.3549 24.1722 36.3549C25.6658 36.3549 26.9579 35.1905 26.9579 33.6605C26.9579 29.3833 30.6146 25.8549 35.165 25.8549C36.6774 25.8549 37.9507 24.687 37.9507 23.1605ZM36.4507 8.7572C36.4507 9.38766 35.9031 9.95165 35.165 9.95165C34.4268 9.95165 33.8793 9.38766 33.8793 8.7572V1.94444C33.8793 1.31046 34.4155 0.75 35.165 0.75C35.9108 0.75 36.4507 1.32133 36.4507 1.94444V8.7572ZM9.16823 32.394C9.91407 32.394 10.4539 32.9654 10.4539 33.5885C10.4539 34.2225 9.91776 34.7829 9.16823 34.7829H2.03571C1.28987 34.7829 0.75 34.2116 0.75 33.5885C0.75 32.958 1.29756 32.394 2.03571 32.394H9.16823ZM61.1618 32.394H68.2943C69.0401 32.394 69.58 32.9654 69.58 33.5885C69.58 34.2189 69.0324 34.7829 68.2943 34.7829H61.1618C60.4159 34.7829 59.876 34.2116 59.876 33.5885C59.876 32.958 60.4236 32.394 61.1618 32.394Z" stroke="#23A440" stroke-width="1.5"/>
</svg>
