<svg width="60" height="66" viewBox="0 0 60 66" fill="none" xmlns="http://www.w3.org/2000/svg">
<path d="M23.3281 10.0941C23.3281 10.6572 22.7869 11.2562 21.9332 11.2562C21.0794 11.2562 20.5383 10.6573 20.5383 10.0943V1.92016C20.56 1.51472 20.7284 1.24448 20.9568 1.06273C21.2037 0.866376 21.5543 0.750087 21.9329 0.75C22.3116 0.749913 22.6621 0.866037 22.909 1.06232C23.1375 1.24397 23.3061 1.51432 23.3281 1.92033V10.0941Z" stroke="#23A440" stroke-width="1.5"/>
<path d="M11.7261 10.8874L11.7261 10.8874L9.42876 8.83941C8.92567 8.39093 8.92567 7.7035 9.42876 7.25502C9.98202 6.76181 10.9108 6.76187 11.4639 7.25498L11.4639 7.25502L13.7612 9.30299C14.2643 9.75147 14.2643 10.4389 13.7612 10.8874L13.7612 10.8874C13.208 11.3806 12.2791 11.3805 11.7261 10.8874Z" stroke="#23A440" stroke-width="1.5"/>
<path d="M32.1405 10.8874L32.1404 10.8874C31.5873 11.3806 30.6584 11.3805 30.1054 10.8874L30.1053 10.8874C29.6023 10.4389 29.6023 9.75147 30.1053 9.30299L32.4027 7.25502C32.9559 6.76181 33.8847 6.76187 34.4378 7.25498L34.4378 7.25502C34.9409 7.7035 34.9409 8.39093 34.4378 8.83941L32.1405 10.8874Z" stroke="#23A440" stroke-width="1.5"/>
<path d="M47.3275 28.6361L47.3269 28.6366C47.3277 28.6359 47.3222 28.6405 47.3126 28.6496L39.8587 35.2945C38.9209 36.1305 37.3602 36.1308 36.421 35.2945C35.5327 34.5026 35.5327 33.2519 36.421 32.46L43.89 25.8018C43.89 25.8017 43.89 25.8017 43.89 25.8017C44.832 24.9621 46.3867 24.9631 47.3275 25.8017L47.3275 25.8018C48.2191 26.5964 48.2181 27.8422 47.3275 28.6361Z" stroke="#23A440" stroke-width="1.5"/>
<path d="M52.9446 36.9446L52.9292 36.9584L47.3273 41.9522C47.3273 41.9523 47.3273 41.9523 47.3273 41.9523C46.3855 42.7917 44.8308 42.7908 43.8904 41.953C43.0017 41.1602 43.002 39.9093 43.8898 39.1179C43.8898 39.1179 43.8898 39.1179 43.8898 39.1179L49.492 34.1239L49.492 34.1239C50.4338 33.2841 51.9887 33.2853 52.9293 34.1239L52.9293 34.1239C53.8158 34.9141 53.82 36.1501 52.9446 36.9446Z" stroke="#23A440" stroke-width="1.5"/>
<path d="M58.5312 42.4472L58.5315 42.4475C59.43 43.2475 59.411 44.4967 58.5317 45.2796L58.5313 45.28L58.5302 45.281L58.5301 45.281L54.7955 48.6104L54.7952 48.6107C53.8688 49.4375 52.3102 49.4586 51.3594 48.6099L51.359 48.6095C50.4692 47.8163 50.4677 46.5706 51.3597 45.7754L55.0939 42.4464C55.094 42.4463 55.094 42.4463 55.094 42.4463C56.0425 41.6009 57.5984 41.6157 58.5312 42.4472Z" stroke="#23A440" stroke-width="1.5"/>
<path d="M44.937 47.8809C43.0309 47.7433 41.2435 47.0109 39.8585 45.7764L39.8583 45.7762C38.4465 44.5169 37.6439 42.8952 37.4723 41.219C35.6282 41.0853 33.8171 40.3886 32.3904 39.1189L32.3899 39.1185C29.1595 36.2387 29.1594 31.5155 32.3895 28.6361L32.8886 29.1959L32.3895 28.636L52.929 10.327C53.7871 9.56107 53.8429 8.30506 52.9377 7.4981C52.1204 6.76959 50.5615 6.53877 49.4921 7.49217L49.4921 7.4922L23.6258 30.5508C29.6687 36.2027 29.5773 45.219 23.3515 50.7691C22.2293 51.7696 20.4416 51.7693 19.3199 50.7691C18.1477 49.7242 18.1478 47.9903 19.32 46.9454C23.2968 43.4001 23.2968 37.6694 19.3199 34.1241L19.3198 34.124L19.819 33.5642L19.3198 34.1239L19.3197 34.1239L19.3195 34.1237L19.3185 34.1227L19.3144 34.1192L19.2988 34.1052L19.2395 34.0524L19.028 33.8636L18.3859 33.2909L17.7437 32.718L17.532 32.5291L17.4724 32.4759L17.4563 32.4615L17.4515 32.4571L17.4513 32.457L17.4483 32.4542L17.4441 32.4505L17.4365 32.4434C17.4296 32.4368 17.3046 32.2779 17.2291 32.1006L17.9511 31.8978L44.937 47.8809ZM44.937 47.8809C45.1138 49.6143 45.9561 51.2107 47.3261 52.4321C47.8731 52.9204 48.4828 53.3295 49.1376 53.6546L38.4446 63.1866C38.4446 63.1866 38.4445 63.1866 38.4445 63.1866C37.4981 64.0302 36.2282 64.5056 34.8594 64.5056H13.6988C13.3027 64.5056 12.9378 64.3646 12.6811 64.1358L1.12733 53.8361C0.624286 53.3876 0.624248 52.7003 1.12721 52.2518C1.12725 52.2517 1.12729 52.2517 1.12733 52.2517L44.937 47.8809Z" stroke="#23A440" stroke-width="1.5"/>
</svg>
