<svg width="514" height="431" viewBox="0 0 514 431" fill="none" xmlns="http://www.w3.org/2000/svg">
<g clip-path="url(#clip0_128_2847)">
<path d="M423.042 208.17C422.738 206.222 420.914 204.888 418.961 205.193C417.014 205.497 415.68 207.328 415.984 209.276C416.499 212.604 417.148 223.029 413.552 227.223C412.774 228.13 411.833 228.674 410.651 228.891L410.979 209.036C411.026 206.152 408.704 203.789 405.816 203.789C402.915 203.789 400.582 206.181 400.652 209.083L401.588 246.762C400.348 246.563 399.372 246.019 398.565 245.077C394.969 240.883 395.623 230.458 396.132 227.13C396.436 225.182 395.103 223.351 393.156 223.047C391.203 222.742 389.378 224.076 389.074 226.024C388.817 227.662 386.753 242.264 393.132 249.716C395.325 252.279 398.296 253.735 401.763 253.958L402.167 270.361H409.961L410.529 236.092C413.92 235.829 416.821 234.384 418.978 231.862C425.364 224.41 423.3 209.814 423.042 208.17Z" fill="#BDBDBD"/>
<path d="M90.291 240.117C90.0981 238.876 88.9344 238.022 87.6889 238.221C86.4492 238.414 85.5955 239.578 85.7943 240.824C86.1218 242.948 86.5369 249.593 84.2447 252.267C83.7477 252.846 83.1512 253.191 82.3969 253.332L82.6074 240.672C82.6367 238.835 81.1572 237.326 79.3153 237.326C77.4675 237.326 75.9822 238.853 76.0231 240.702L76.6196 264.721C75.8302 264.593 75.2045 264.248 74.6958 263.651C72.4036 260.977 72.8187 254.332 73.1462 252.208C73.3392 250.968 72.4913 249.798 71.2516 249.605C70.0061 249.412 68.8424 250.26 68.6495 251.501C68.4857 252.548 67.17 261.849 71.2341 266.605C72.6316 268.237 74.5262 269.167 76.7365 269.308L76.9938 279.762H81.9642L82.3267 257.918C84.4845 257.748 86.3381 256.83 87.7123 255.221C91.7704 250.465 90.4548 241.158 90.291 240.117Z" fill="#BDBDBD"/>
<path d="M256.997 431C398.933 431 513.994 390.25 513.994 339.981C513.994 289.713 398.933 248.962 256.997 248.962C115.062 248.962 0 289.713 0 339.981C0 390.25 115.062 431 256.997 431Z" fill="url(#paint0_linear_128_2847)"/>
<path d="M298.023 229.651C298.023 229.651 297.871 238.408 298.017 239.286C298.163 240.163 294.591 245.3 293.129 245.072C291.667 244.843 288.743 244.358 288.322 243.872C287.901 243.387 288.088 242.234 288.234 241.187C288.386 240.134 289.48 230.599 289.48 230.113C289.48 229.628 296.397 228.317 298.023 229.651Z" fill="#FFD3BC"/>
<path d="M292.357 238.783C290.527 239.771 289.503 242.778 289.24 242.813C288.983 242.848 288.497 242.778 288.497 242.48C288.497 242.182 288.574 241.181 288.24 241.181C287.907 241.181 287.533 242.813 287.462 245.194C287.386 247.575 286.544 253.244 287.462 253.963C288.041 254.414 293.333 257.198 293.48 257.567C293.626 257.941 293.368 260.539 293.813 260.948C294.257 261.358 295.298 262.358 296.117 262.399C296.935 262.434 301.649 262.92 303.882 262.399C306.11 261.878 308.935 260.802 309.011 260.504C309.087 260.205 308.455 253.887 307.747 253.109C307.04 252.331 301.953 245.341 301.543 244.709C301.134 244.077 300.836 242.556 300.836 241.661C300.836 240.772 300.029 238.824 298.526 238.356C296.959 237.87 293.731 238.04 292.357 238.783Z" fill="#91D567"/>
<path d="M244.659 234.717C244.659 234.717 244.659 239.818 244.513 240.696C244.366 241.573 247.939 246.709 249.401 246.481C250.863 246.253 253.787 245.768 254.208 245.282C254.629 244.797 254.442 243.644 254.296 242.597C254.143 241.544 253.202 235.665 253.202 235.179C253.202 234.682 246.284 233.383 244.659 234.717Z" fill="#FFD3BC"/>
<path d="M249.366 122.158C247.296 129.681 243.384 155.462 243.384 167.992C243.384 180.523 242.133 212.469 242.133 217.319C242.133 222.175 241.612 234.22 242.864 234.845C244.115 235.471 247.045 237.355 251.015 236.729C254.986 236.103 256.032 233.594 256.137 231.295C256.243 228.996 257.184 212.475 258.126 206.099C259.067 199.722 262.412 187.42 264.605 179.511C266.797 171.596 271.92 155.69 273.276 155.748C274.633 155.807 283.1 190.661 283.802 192.638C284.509 194.615 285.849 222.678 285.936 225.035C286.024 227.393 285.936 229.657 287.416 230.616C288.895 231.575 293.433 233.933 295.783 234.103C298.14 234.278 299.707 230.528 300.14 229.393C300.578 228.258 301.35 190.719 301.07 180.424C300.789 170.128 301.608 150.922 301.128 144.663C300.654 138.403 299.122 124.984 298.146 122.158C297.181 119.333 249.366 122.158 249.366 122.158Z" fill="#192B59"/>
<path d="M234.753 34.6842C236.73 32.4904 245.939 22.101 247.77 21.7324C249.6 21.3639 254.05 20.5624 255.038 19.5387C256.032 18.5149 260.225 5.33503 258.564 2.93656C256.903 0.538085 250.489 1.21668 248.547 5.29993C246.606 9.38319 246.7 11.5184 243.495 14.3381C240.291 17.1578 226.321 28.5827 225.023 29.7351C223.725 30.8876 226.304 36.4976 228.344 37.4687C230.391 38.4398 234.753 34.6842 234.753 34.6842Z" fill="url(#paint1_linear_128_2847)"/>
<path d="M260.219 37.849C255.512 38.8376 247.688 39.6742 245.109 40.5107C242.525 41.3472 232.35 44.9157 232.426 43.3947C232.502 41.8737 237.133 35.1931 236.297 34.5087C235.461 33.8242 230.45 32.9877 229.613 31.923C228.777 30.8583 227.637 28.3545 226.502 28.6587C225.362 28.9629 212.159 41.2654 213.059 45.9804C215.188 57.0894 246.401 65.1799 247.115 70.0236C247.828 74.8674 244.694 121.316 246.401 123.024C248.109 124.732 266.195 131.29 275.311 131.857C284.428 132.425 300.415 129.248 301.286 126.85C302.157 124.451 296.836 78.3013 297.456 78.3013C298.076 78.3013 298.245 92.8267 305.192 96.5824C309.777 99.0627 316.08 96.5063 317.285 95.1374C318.489 93.7685 312.975 74.4579 310.484 67.9411C307.987 61.4301 305.601 47.9694 299.959 43.1958C294.316 38.4223 286.351 39.2296 283.609 38.1122C280.867 36.989 271.668 37.7963 269.347 37.5506C267.031 37.3049 260.219 37.849 260.219 37.849Z" fill="#91D567"/>
<path d="M319.021 86.4096C319.021 86.4096 310.905 88.8666 310.274 89.709C309.642 90.5514 308.513 93.9326 310.274 95.3424C312.034 96.7523 313.963 97.8053 316.051 96.179C318.138 94.5527 320.039 92.3707 321.243 92.0899C322.448 91.8149 326.056 92.3297 327.57 91.7389C329.085 91.1422 331.956 79.6588 330.798 78.9626C329.635 78.2665 319.021 86.4096 319.021 86.4096Z" fill="url(#paint2_linear_128_2847)"/>
<path d="M260.254 36.2988C257.634 35.7548 252.576 30.8057 252.114 25.7806C251.664 20.8842 248.062 7.11932 260.593 1.95382C272.353 -2.88993 284.451 2.09422 286.194 8.06701C287.819 13.6478 274.013 13.8994 268.955 17.5322C263.897 21.165 263.552 23.5752 262.289 23.0019C261.02 22.4286 260.254 36.2988 260.254 36.2988Z" fill="#E64D4E"/>
<path d="M260.044 26.4884C259.88 28.7289 259.313 39.5806 260.254 41.1834C261.12 42.6518 262.652 46.9164 268.657 46.7292C274.668 46.542 278.563 40.5282 278.896 39.8263C279.223 39.1243 278.522 30.4313 278.522 28.9746C278.522 27.518 270.446 24.0899 267.207 24.1835C263.961 24.2713 260.201 24.3824 260.044 26.4884Z" fill="url(#paint3_linear_128_2847)"/>
<path d="M260.593 26.5238C261.272 26.5062 260.47 30.6421 261.698 31.9935C262.926 33.3448 268.271 40.394 273.926 39.7037C278.814 39.107 278.112 34.895 278.82 31.4202C279.457 28.267 281.492 27.9979 282.206 19.7671C282.48 16.5847 283.989 11.5947 281.223 10.6763C278.457 9.75199 268.084 7.29502 265.505 10.6763C262.926 14.0575 262.681 22.1656 261.33 21.1184C259.979 20.0713 257.155 14.976 255.494 17.7372C253.839 20.5042 256.974 26.6291 260.593 26.5238Z" fill="#F2DAD4"/>
<path d="M304.256 68.6081L287.796 89.428C286.942 90.5102 287.726 92.1014 289.106 92.078L319.53 91.5632C320.033 91.5574 320.507 91.3117 320.811 90.908L336.359 70.1232C337.096 69.1404 336.388 67.7364 335.16 67.7481L305.525 67.9938C305.028 67.988 304.561 68.2161 304.256 68.6081Z" fill="url(#paint4_linear_128_2847)"/>
<path d="M330.278 76.991C328.676 77.1548 326.348 78.0557 326.348 78.8922C326.348 79.7288 328.214 79.9569 328.728 80.0388C329.243 80.1149 329.921 80.2787 329.728 80.5361C329.535 80.7935 329.149 82.0804 328.12 81.8581C327.091 81.63 322.582 81.5656 321.711 81.5656C320.84 81.5656 319.811 82.1799 319.746 82.8234C319.682 83.4669 319.489 83.5956 318.975 83.6307C318.46 83.6658 317.524 84.1455 317.524 84.982C317.524 85.8185 319.594 86.5732 319.594 86.8715C319.594 87.1699 323.653 89.6444 324.448 90.1065C325.243 90.5687 326.728 91.7387 327.565 91.7387C328.401 91.7387 329.804 90.9431 329.909 89.7907C330.015 88.6382 331.67 87.8017 331.687 87.2342C331.71 86.6668 331.167 86.2514 331.225 85.8946C331.289 85.5378 332.734 85.0347 332.734 84.1338C332.734 83.2329 332.167 82.0219 332.085 81.6417C332.003 81.2673 331.664 80.4483 332.003 80.343C332.336 80.2377 333.511 79.1496 333.301 78.1434C333.09 77.1431 331.02 76.9149 330.278 76.991Z" fill="#FFD3BC"/>
<path d="M250.173 240.192C252.003 241.181 253.027 244.188 253.29 244.223C253.547 244.258 254.032 244.188 254.032 243.89C254.032 243.591 253.956 242.591 254.29 242.591C254.623 242.591 254.997 244.223 255.067 246.604C255.143 248.985 255.985 254.653 255.067 255.373C254.489 255.823 249.197 258.608 249.05 258.977C248.904 259.351 249.161 261.948 248.717 262.358C248.273 262.767 247.232 263.768 246.413 263.809C245.594 263.844 240.881 264.329 238.648 263.809C236.42 263.288 233.595 262.212 233.519 261.913C233.443 261.615 234.075 255.297 234.782 254.519C235.49 253.741 240.577 246.75 240.987 246.118C241.396 245.487 241.694 243.966 241.694 243.071C241.694 242.181 242.501 240.233 244.004 239.765C245.571 239.28 248.799 239.45 250.173 240.192Z" fill="#91D567"/>
</g>
<defs>
<linearGradient id="paint0_linear_128_2847" x1="257" y1="207.706" x2="257" y2="350.635" gradientUnits="userSpaceOnUse">
<stop stop-color="#E5E5E5"/>
<stop offset="0.4764" stop-color="#F4F4F4"/>
<stop offset="1" stop-color="white"/>
</linearGradient>
<linearGradient id="paint1_linear_128_2847" x1="264.232" y1="22.0438" x2="239.077" y2="19.2379" gradientUnits="userSpaceOnUse">
<stop stop-color="#F2BFAD"/>
<stop offset="1" stop-color="#F2DAD4"/>
</linearGradient>
<linearGradient id="paint2_linear_128_2847" x1="320.412" y1="90.154" x2="321.693" y2="111.86" gradientUnits="userSpaceOnUse">
<stop stop-color="#F2BFAD"/>
<stop offset="0.7043" stop-color="#F2DAD4"/>
</linearGradient>
<linearGradient id="paint3_linear_128_2847" x1="267.495" y1="31.077" x2="275.818" y2="48.451" gradientUnits="userSpaceOnUse">
<stop stop-color="#F2BFAD"/>
<stop offset="1" stop-color="#F2DAD4"/>
</linearGradient>
<linearGradient id="paint4_linear_128_2847" x1="306.459" y1="69.5644" x2="320.948" y2="96.209" gradientUnits="userSpaceOnUse">
<stop stop-color="#F6DBDB"/>
<stop offset="1" stop-color="#EB9A99"/>
</linearGradient>
<clipPath id="clip0_128_2847">
<rect width="514" height="431" fill="white"/>
</clipPath>
</defs>
</svg>
