<svg width="74" height="71" viewBox="0 0 74 71" fill="none" xmlns="http://www.w3.org/2000/svg">
<path d="M36.651 21.1499C32.5762 21.1499 29.301 24.3566 29.301 28.2472C29.301 32.1381 32.5762 35.3449 36.651 35.3449C40.7245 35.3449 43.9992 32.1383 43.9992 28.2473L36.651 21.1499ZM36.651 21.1499C40.7245 21.1499 43.999 24.3564 43.9992 28.2472L36.651 21.1499Z" stroke="#23A440" stroke-width="1.5"/>
<path d="M72.5493 31.5572V31.5574L72.5506 39.1001C72.5506 39.1002 72.5506 39.1002 72.5506 39.1003C72.5505 40.6214 71.3658 41.9398 69.7453 42.1256C69.745 42.1257 69.7446 42.1257 69.7443 42.1257L65.5179 42.5963L65.023 42.6514L64.8817 43.1289C64.2829 45.1528 63.4265 47.1345 62.3299 49.0309L62.0711 49.4786L62.3974 49.8797L65.1509 53.264L65.1522 53.2656C66.1417 54.475 66.0419 56.2035 64.9153 57.2955C64.9153 57.2955 64.9152 57.2956 64.9152 57.2956L59.4146 62.6249C59.4141 62.6254 59.4136 62.6259 59.4131 62.6263C58.8083 63.2049 58.0106 63.5238 57.1581 63.5238C56.4426 63.5238 55.739 63.2855 55.1809 62.8575L55.1808 62.8575L51.6327 60.1376L51.2515 59.8454L50.8266 60.0694C48.8492 61.1119 46.7618 61.9294 44.6105 62.5042L44.1196 62.6353L44.0594 63.1399L43.5336 67.5458C43.5336 67.5462 43.5335 67.5466 43.5335 67.5469C43.348 69.072 42.0098 70.25 40.3876 70.25H32.6005C30.9773 70.25 29.6388 69.0713 29.4539 67.5474C29.4538 67.5473 29.4538 67.5472 29.4538 67.5471L28.902 62.9522L28.8429 62.4602L28.3672 62.3215C26.3685 61.7391 24.435 60.9466 22.608 59.9611L22.1808 59.7307L21.7956 60.026L18.1197 62.8443L18.1193 62.8446C17.5578 63.2757 16.8519 63.5152 16.1354 63.5152C15.2826 63.5152 14.488 63.1941 13.89 62.6147L13.8899 62.6147L8.39008 57.287C8.38959 57.2865 8.38909 57.286 8.3886 57.2855C7.26361 56.1805 7.16874 54.4512 8.15012 53.2512L11.0863 49.6619L11.4112 49.2647L11.1588 48.8181C10.207 47.1335 9.42851 45.3427 8.84076 43.4836L8.69384 43.0188L8.20949 42.9644L3.55737 42.441C3.55706 42.441 3.55676 42.441 3.55645 42.4409C3.55643 42.4409 3.55641 42.4409 3.5564 42.4409C1.93667 42.2561 0.751332 40.9385 0.75 39.4167L0.75109 31.8727V31.8726C0.75109 30.3519 1.93494 29.0345 3.55387 28.8493C3.5544 28.8492 3.55493 28.8492 3.55546 28.8491L7.93 28.3656L8.43607 28.3096L8.57085 27.8186C9.1294 25.7837 9.93458 23.8086 10.9696 21.9364L11.215 21.4924L10.8942 21.0994L8.14935 17.7357L8.14903 17.7353C7.15926 16.5241 7.25975 14.795 8.38643 13.7032L7.8645 13.1646L8.38643 13.7032L13.8869 8.3729C14.4934 7.79433 15.2915 7.47579 16.1439 7.47579C16.8596 7.47579 17.5623 7.71402 18.1189 8.14169L18.119 8.14173L21.3716 10.6402L21.7635 10.9413L22.1947 10.7C24.2575 9.5457 26.4586 8.64424 28.7481 8.01637L29.2341 7.88307L29.2943 7.38269L29.7674 3.45217C29.951 1.92853 31.2885 0.75 32.9129 0.75H40.6998C42.3229 0.75 43.6617 1.92853 43.8471 3.45301L44.3193 7.38324L44.3794 7.88308L44.8647 8.01682C47.0987 8.63244 49.2389 9.50109 51.2383 10.6033L51.668 10.8402L52.0572 10.5414L55.1821 8.14181L54.7253 7.54695L55.1821 8.1418C55.7434 7.71071 56.4491 7.47122 57.1654 7.47122C58.0181 7.47122 58.8129 7.79233 59.4114 8.37174C59.4114 8.37178 59.4114 8.37181 59.4115 8.37185L64.8989 13.6877C64.8994 13.6882 64.8999 13.6887 64.9004 13.6892C66.0244 14.7929 66.1194 16.5217 65.1381 17.7222L65.138 17.7224L62.5772 20.8578L62.254 21.2535L62.5039 21.6991C63.5534 23.5701 64.3741 25.5264 64.9484 27.5242L65.0869 28.0058L65.5848 28.0622L69.7449 28.5333C71.3643 28.7168 72.5493 30.0343 72.5493 31.5572ZM29.0998 48.4266V46.3446L27.7721 47.9483L24.5867 51.7958L24.0478 52.4467L24.7581 52.9045C25.7981 53.5748 26.9013 54.16 28.0572 54.6498L29.0998 55.0915V53.9592V48.4266ZM45.5276 47.9479L44.1998 46.3442V48.4262V53.9592V55.0914L45.2424 54.6498C46.3981 54.1602 47.5017 53.5752 48.5419 52.9044L49.2519 52.4465L48.7132 51.7958L45.5276 47.9479ZM44.8186 38.9163L44.8307 38.9333L44.8438 38.9496L52.4137 48.3903L52.9954 49.1157L53.5812 48.3936C56.4617 44.8431 58.1851 40.3635 58.1851 35.4996C58.1851 23.9601 48.5025 14.6133 36.6501 14.6133C24.7977 14.6133 15.1151 23.9599 15.1151 35.4996C15.1151 40.3633 16.8385 44.8429 19.7188 48.3934L20.3047 49.1156L20.8864 48.3901L28.4655 38.9367L28.4786 38.9204L28.4908 38.9034C28.9714 38.2302 29.7884 37.8089 30.6738 37.8089H30.6742H30.6748H30.6757H30.6769H30.6783H30.68H30.682H30.6842H30.6867H30.6895H30.6925H30.6958H30.6993H30.7031H30.7072H30.7115H30.716H30.7208H30.7259H30.7312H30.7368H30.7426H30.7486H30.7549H30.7615H30.7683H30.7753H30.7826H30.7901H30.7979H30.8059H30.8141H30.8226H30.8313H30.8402H30.8494H30.8588H30.8685H30.8783H30.8884H30.8988H30.9093H30.9201H30.9311H30.9424H30.9538H30.9655H30.9774H30.9895H31.0019H31.0144H31.0272H31.0402H31.0534H31.0668H31.0805H31.0943H31.1084H31.1226H31.1371H31.1518H31.1667H31.1818H31.1971H31.2126H31.2283H31.2442H31.2603H31.2766H31.2931H31.3098H31.3266H31.3437H31.361H31.3785H31.3961H31.414H31.432H31.4503H31.4687H31.4873H31.5061H31.5251H31.5442H31.5636H31.5831H31.6028H31.6227H31.6427H31.663H31.6834H31.704H31.7247H31.7456H31.7667H31.788H31.8095H31.8311H31.8528H31.8748H31.8969H31.9192H31.9416H31.9642H31.9869H32.0099H32.0329H32.0562H32.0796H32.1031H32.1268H32.1507H32.1747H32.1988H32.2231H32.2476H32.2722H32.2969H32.3218H32.3469H32.3721H32.3974H32.4229H32.4485H32.4742H32.5001H32.5261H32.5523H32.5786H32.605H32.6316H32.6583H32.6851H32.7121H32.7392H32.7664H32.7937H32.8212H32.8488H32.8765H32.9044H32.9323H32.9604H32.9886H33.0169H33.0454H33.0739H33.1026H33.1314H33.1603H33.1893H33.2184H33.2477H33.277H33.3064H33.336H33.3657H33.3954H33.4253H33.4553H33.4854H33.5155H33.5458H33.5762H33.6066H33.6372H33.6679H33.6986H33.7295H33.7604H33.7914H33.8226H33.8538H33.8851H33.9165H33.9479H33.9795H34.0111H34.0428H34.0746H34.1065H34.1385H34.1705H34.2027H34.2348H34.2671H34.2995H34.3319H34.3644H34.3969H34.4296H34.4622H34.495H34.5279H34.5607H34.5937H34.6267H34.6598H34.693H34.7262H34.7595H34.7928H34.8262H34.8596H34.8931H34.9267H34.9603H34.9939H35.0276H35.0614H35.0952H35.129H35.1629H35.1969H35.2309H35.2649H35.299H35.3331H35.3672H35.4014H35.4357H35.4699H35.5042H35.5386H35.5729H35.6073H35.6418H35.6763H35.7108H35.7453H35.7798H35.8144H35.849H35.8837H35.9183H35.953H35.9877H36.0224H36.0571H36.0919H36.1267H36.1615H36.1963H36.2311H36.2659H36.3007H36.3356H36.3705H36.4053H36.4402H36.4751H36.51H36.5449H36.5798H36.6147H36.6496H36.6845H36.7194H36.7542H36.7891H36.824H36.8589H36.8938H36.9287H36.9635H36.9984H37.0332H37.068H37.1029H37.1377H37.1725H37.2072H37.242H37.2767H37.3114H37.3461H37.3808H37.4155H37.4501H37.4847H37.5193H37.5538H37.5884H37.6229H37.6573H37.6918H37.7262H37.7606H37.7949H37.8292H37.8635H37.8977H37.9319H37.9661H38.0002H38.0342H38.0683H38.1023H38.1362H38.1701H38.204H38.2378H38.2715H38.3052H38.3389H38.3725H38.406H38.4395H38.473H38.5064H38.5397H38.573H38.6062H38.6393H38.6724H38.7054H38.7384H38.7713H38.8041H38.8369H38.8696H38.9022H38.9348H38.9673H38.9997H39.032H39.0643H39.0965H39.1286H39.1607H39.1926H39.2245H39.2563H39.288H39.3197H39.3512H39.3827H39.4141H39.4454H39.4766H39.5077H39.5388H39.5697H39.6006H39.6313H39.662H39.6925H39.723H39.7534H39.7837H39.8138H39.8439H39.8739H39.9038H39.9335H39.9632H39.9928H40.0222H40.0515H40.0808H40.1099H40.1389H40.1678H40.1966H40.2253H40.2538H40.2823H40.3106H40.3388H40.3669H40.3949H40.4227H40.4504H40.478H40.5055H40.5328H40.5601H40.5871H40.6141H40.6409H40.6676H40.6942H40.7206H40.7469H40.7731H40.7991H40.825H40.8508H40.8764H40.9019H40.9272H40.9524H40.9774H41.0023H41.0271H41.0517H41.0762H41.1005H41.1246H41.1486H41.1725H41.1962H41.2197H41.2431H41.2664H41.2894H41.3124H41.3351H41.3577H41.3802H41.4024H41.4245H41.4465H41.4683H41.4899H41.5113H41.5326H41.5537H41.5746H41.5954H41.616H41.6364H41.6566H41.6767H41.6966H41.7163H41.7358H41.7551H41.7743H41.7933H41.8121H41.8307H41.8491H41.8673H41.8854H41.9032H41.9209H41.9384H41.9557H41.9728H41.9896H42.0063H42.0229H42.0392H42.0553H42.0712H42.0869H42.1024H42.1177H42.1328H42.1477H42.1623H42.1768H42.1911H42.2051H42.219H42.2326H42.2461H42.2593H42.2723H42.285H42.2976H42.3099H42.3221H42.334H42.3457H42.3571H42.3684H42.3794H42.3902H42.4007H42.4111H42.4212H42.431H42.4407H42.4501H42.4593H42.4682H42.477H42.4854H42.4937H42.5017H42.5094H42.517H42.5243H42.5313H42.5381H42.5446H42.551H42.557H42.5628H42.5684H42.5737H42.5788H42.5836H42.5881H42.5924H42.5965H42.6003H42.6038H42.6071H42.6101H42.6129H42.6154H42.6176H42.6196H42.6213H42.6228H42.6239H42.6248H42.6255H42.6259C43.5096 37.8089 44.3274 38.2286 44.8186 38.9163Z" stroke="#23A440" stroke-width="1.5"/>
</svg>
